<mxfile host="app.diagrams.net" agent="Mozilla/5.0 (X11; Linux x86_64) AppleWebKit/537.36 (KHTML, like Gecko) Chrome/128.0.0.0 Safari/537.36" version="24.7.7">
  <diagram id="C5RBs43oDa-KdzZeNtuy" name="Page-1">
    <mxGraphModel dx="1091" dy="634" grid="1" gridSize="10" guides="1" tooltips="1" connect="1" arrows="1" fold="1" page="1" pageScale="1" pageWidth="1169" pageHeight="827" math="0" shadow="0">
      <root>
        <mxCell id="WIyWlLk6GJQsqaUBKTNV-0" />
        <mxCell id="WIyWlLk6GJQsqaUBKTNV-1" parent="WIyWlLk6GJQsqaUBKTNV-0" />
        <mxCell id="shBaJVuwjm3f6TYhgG4G-14" value="" style="edgeStyle=orthogonalEdgeStyle;rounded=0;orthogonalLoop=1;jettySize=auto;html=1;" edge="1" parent="WIyWlLk6GJQsqaUBKTNV-1" source="shBaJVuwjm3f6TYhgG4G-0" target="shBaJVuwjm3f6TYhgG4G-1">
          <mxGeometry relative="1" as="geometry" />
        </mxCell>
        <mxCell id="shBaJVuwjm3f6TYhgG4G-0" value="&lt;font style=&quot;font-size: 14px;&quot;&gt;Start&lt;/font&gt;" style="ellipse;whiteSpace=wrap;html=1;" vertex="1" parent="WIyWlLk6GJQsqaUBKTNV-1">
          <mxGeometry x="16" y="374" width="120" height="80" as="geometry" />
        </mxCell>
        <mxCell id="shBaJVuwjm3f6TYhgG4G-58" value="" style="edgeStyle=orthogonalEdgeStyle;rounded=0;orthogonalLoop=1;jettySize=auto;html=1;" edge="1" parent="WIyWlLk6GJQsqaUBKTNV-1" source="shBaJVuwjm3f6TYhgG4G-1">
          <mxGeometry relative="1" as="geometry">
            <mxPoint x="240" y="594" as="targetPoint" />
          </mxGeometry>
        </mxCell>
        <mxCell id="shBaJVuwjm3f6TYhgG4G-69" value="YES" style="edgeLabel;html=1;align=center;verticalAlign=middle;resizable=0;points=[];" vertex="1" connectable="0" parent="shBaJVuwjm3f6TYhgG4G-58">
          <mxGeometry x="-0.3313" y="1" relative="1" as="geometry">
            <mxPoint as="offset" />
          </mxGeometry>
        </mxCell>
        <mxCell id="shBaJVuwjm3f6TYhgG4G-64" value="" style="edgeStyle=orthogonalEdgeStyle;rounded=0;orthogonalLoop=1;jettySize=auto;html=1;" edge="1" parent="WIyWlLk6GJQsqaUBKTNV-1" source="shBaJVuwjm3f6TYhgG4G-1" target="shBaJVuwjm3f6TYhgG4G-63">
          <mxGeometry relative="1" as="geometry" />
        </mxCell>
        <mxCell id="shBaJVuwjm3f6TYhgG4G-67" value="NO" style="edgeLabel;html=1;align=center;verticalAlign=middle;resizable=0;points=[];" vertex="1" connectable="0" parent="shBaJVuwjm3f6TYhgG4G-64">
          <mxGeometry x="-0.2476" y="1" relative="1" as="geometry">
            <mxPoint as="offset" />
          </mxGeometry>
        </mxCell>
        <mxCell id="shBaJVuwjm3f6TYhgG4G-1" value="&lt;font style=&quot;font-size: 14px;&quot;&gt;Signed in?&lt;/font&gt;" style="rhombus;whiteSpace=wrap;html=1;" vertex="1" parent="WIyWlLk6GJQsqaUBKTNV-1">
          <mxGeometry x="190" y="364" width="100" height="100" as="geometry" />
        </mxCell>
        <mxCell id="shBaJVuwjm3f6TYhgG4G-20" value="" style="edgeStyle=orthogonalEdgeStyle;rounded=0;orthogonalLoop=1;jettySize=auto;html=1;" edge="1" parent="WIyWlLk6GJQsqaUBKTNV-1" target="shBaJVuwjm3f6TYhgG4G-19">
          <mxGeometry relative="1" as="geometry">
            <mxPoint x="760" y="260" as="sourcePoint" />
          </mxGeometry>
        </mxCell>
        <mxCell id="shBaJVuwjm3f6TYhgG4G-16" value="" style="edgeStyle=orthogonalEdgeStyle;rounded=0;orthogonalLoop=1;jettySize=auto;html=1;" edge="1" parent="WIyWlLk6GJQsqaUBKTNV-1" source="shBaJVuwjm3f6TYhgG4G-3" target="shBaJVuwjm3f6TYhgG4G-15">
          <mxGeometry relative="1" as="geometry" />
        </mxCell>
        <mxCell id="shBaJVuwjm3f6TYhgG4G-3" value="&lt;font style=&quot;font-size: 14px;&quot;&gt;Create user new user with role&lt;/font&gt;" style="rounded=1;whiteSpace=wrap;html=1;strokeWidth=2;" vertex="1" parent="WIyWlLk6GJQsqaUBKTNV-1">
          <mxGeometry x="290" y="250" width="130" height="60" as="geometry" />
        </mxCell>
        <mxCell id="shBaJVuwjm3f6TYhgG4G-15" value="&lt;span style=&quot;font-size: 14px;&quot;&gt;Authenticate user&lt;/span&gt;" style="rounded=1;whiteSpace=wrap;html=1;strokeWidth=2;" vertex="1" parent="WIyWlLk6GJQsqaUBKTNV-1">
          <mxGeometry x="470" y="250" width="130" height="60" as="geometry" />
        </mxCell>
        <mxCell id="shBaJVuwjm3f6TYhgG4G-17" style="edgeStyle=orthogonalEdgeStyle;rounded=0;orthogonalLoop=1;jettySize=auto;html=1;" edge="1" parent="WIyWlLk6GJQsqaUBKTNV-1" source="shBaJVuwjm3f6TYhgG4G-15" target="shBaJVuwjm3f6TYhgG4G-45">
          <mxGeometry relative="1" as="geometry">
            <mxPoint x="708.04" y="291.02" as="targetPoint" />
          </mxGeometry>
        </mxCell>
        <mxCell id="shBaJVuwjm3f6TYhgG4G-37" value="" style="edgeStyle=orthogonalEdgeStyle;rounded=0;orthogonalLoop=1;jettySize=auto;html=1;" edge="1" parent="WIyWlLk6GJQsqaUBKTNV-1">
          <mxGeometry relative="1" as="geometry">
            <mxPoint x="992" y="209" as="sourcePoint" />
            <mxPoint x="1047" y="209" as="targetPoint" />
          </mxGeometry>
        </mxCell>
        <mxCell id="shBaJVuwjm3f6TYhgG4G-66" value="" style="edgeStyle=orthogonalEdgeStyle;rounded=0;orthogonalLoop=1;jettySize=auto;html=1;" edge="1" parent="WIyWlLk6GJQsqaUBKTNV-1" source="shBaJVuwjm3f6TYhgG4G-45" target="shBaJVuwjm3f6TYhgG4G-46">
          <mxGeometry relative="1" as="geometry" />
        </mxCell>
        <mxCell id="shBaJVuwjm3f6TYhgG4G-45" value="&lt;font style=&quot;font-size: 14px;&quot;&gt;Login&lt;/font&gt;" style="rounded=1;whiteSpace=wrap;html=1;strokeWidth=2;" vertex="1" parent="WIyWlLk6GJQsqaUBKTNV-1">
          <mxGeometry x="633" y="380" width="120" height="60" as="geometry" />
        </mxCell>
        <mxCell id="shBaJVuwjm3f6TYhgG4G-46" value="&lt;font style=&quot;font-size: 14px;&quot;&gt;Action&lt;/font&gt;" style="rounded=1;whiteSpace=wrap;html=1;strokeWidth=2;" vertex="1" parent="WIyWlLk6GJQsqaUBKTNV-1">
          <mxGeometry x="823" y="380" width="120" height="60" as="geometry" />
        </mxCell>
        <mxCell id="shBaJVuwjm3f6TYhgG4G-47" value="&lt;font style=&quot;font-size: 14px;&quot;&gt;Template&lt;/font&gt;" style="rounded=1;whiteSpace=wrap;html=1;strokeWidth=2;" vertex="1" parent="WIyWlLk6GJQsqaUBKTNV-1">
          <mxGeometry x="1049" y="180" width="120" height="60" as="geometry" />
        </mxCell>
        <mxCell id="shBaJVuwjm3f6TYhgG4G-48" value="&lt;font style=&quot;font-size: 14px;&quot;&gt;Forms&lt;/font&gt;" style="rounded=1;whiteSpace=wrap;html=1;strokeWidth=2;" vertex="1" parent="WIyWlLk6GJQsqaUBKTNV-1">
          <mxGeometry x="1049" y="320" width="120" height="60" as="geometry" />
        </mxCell>
        <mxCell id="shBaJVuwjm3f6TYhgG4G-49" value="&lt;span style=&quot;font-size: 14px;&quot;&gt;Report&lt;/span&gt;" style="rounded=1;whiteSpace=wrap;html=1;strokeWidth=2;" vertex="1" parent="WIyWlLk6GJQsqaUBKTNV-1">
          <mxGeometry x="1049" y="460" width="120" height="60" as="geometry" />
        </mxCell>
        <mxCell id="shBaJVuwjm3f6TYhgG4G-50" value="&lt;font style=&quot;font-size: 14px;&quot;&gt;ChatBot&lt;/font&gt;" style="rounded=1;whiteSpace=wrap;html=1;strokeWidth=2;" vertex="1" parent="WIyWlLk6GJQsqaUBKTNV-1">
          <mxGeometry x="1049" y="600" width="120" height="60" as="geometry" />
        </mxCell>
        <mxCell id="shBaJVuwjm3f6TYhgG4G-51" value="" style="edgeStyle=orthogonalEdgeStyle;rounded=0;orthogonalLoop=1;jettySize=auto;html=1;" edge="1" parent="WIyWlLk6GJQsqaUBKTNV-1">
          <mxGeometry relative="1" as="geometry">
            <mxPoint x="994" y="410" as="sourcePoint" />
            <mxPoint x="994" y="210" as="targetPoint" />
            <Array as="points">
              <mxPoint x="994" y="350" />
              <mxPoint x="994" y="350" />
            </Array>
          </mxGeometry>
        </mxCell>
        <mxCell id="shBaJVuwjm3f6TYhgG4G-52" value="" style="edgeStyle=orthogonalEdgeStyle;rounded=0;orthogonalLoop=1;jettySize=auto;html=1;" edge="1" parent="WIyWlLk6GJQsqaUBKTNV-1">
          <mxGeometry relative="1" as="geometry">
            <mxPoint x="994" y="410" as="sourcePoint" />
            <mxPoint x="994" y="630" as="targetPoint" />
          </mxGeometry>
        </mxCell>
        <mxCell id="shBaJVuwjm3f6TYhgG4G-53" value="" style="endArrow=classic;html=1;rounded=0;" edge="1" parent="WIyWlLk6GJQsqaUBKTNV-1">
          <mxGeometry width="50" height="50" relative="1" as="geometry">
            <mxPoint x="943" y="410" as="sourcePoint" />
            <mxPoint x="993" y="410" as="targetPoint" />
          </mxGeometry>
        </mxCell>
        <mxCell id="shBaJVuwjm3f6TYhgG4G-54" value="" style="edgeStyle=orthogonalEdgeStyle;rounded=0;orthogonalLoop=1;jettySize=auto;html=1;" edge="1" parent="WIyWlLk6GJQsqaUBKTNV-1" target="shBaJVuwjm3f6TYhgG4G-50">
          <mxGeometry relative="1" as="geometry">
            <mxPoint x="994" y="630" as="sourcePoint" />
          </mxGeometry>
        </mxCell>
        <mxCell id="shBaJVuwjm3f6TYhgG4G-55" value="" style="edgeStyle=orthogonalEdgeStyle;rounded=0;orthogonalLoop=1;jettySize=auto;html=1;" edge="1" parent="WIyWlLk6GJQsqaUBKTNV-1" target="shBaJVuwjm3f6TYhgG4G-49">
          <mxGeometry relative="1" as="geometry">
            <mxPoint x="994" y="490" as="sourcePoint" />
          </mxGeometry>
        </mxCell>
        <mxCell id="shBaJVuwjm3f6TYhgG4G-56" value="" style="edgeStyle=orthogonalEdgeStyle;rounded=0;orthogonalLoop=1;jettySize=auto;html=1;" edge="1" parent="WIyWlLk6GJQsqaUBKTNV-1" target="shBaJVuwjm3f6TYhgG4G-48">
          <mxGeometry relative="1" as="geometry">
            <mxPoint x="994" y="350" as="sourcePoint" />
          </mxGeometry>
        </mxCell>
        <mxCell id="shBaJVuwjm3f6TYhgG4G-60" value="" style="edgeStyle=orthogonalEdgeStyle;rounded=0;orthogonalLoop=1;jettySize=auto;html=1;" edge="1" parent="WIyWlLk6GJQsqaUBKTNV-1">
          <mxGeometry relative="1" as="geometry">
            <mxPoint x="240" y="594" as="sourcePoint" />
            <mxPoint x="693" y="594" as="targetPoint" />
          </mxGeometry>
        </mxCell>
        <mxCell id="shBaJVuwjm3f6TYhgG4G-62" value="" style="edgeStyle=orthogonalEdgeStyle;rounded=0;orthogonalLoop=1;jettySize=auto;html=1;entryX=0.5;entryY=1;entryDx=0;entryDy=0;" edge="1" parent="WIyWlLk6GJQsqaUBKTNV-1" target="shBaJVuwjm3f6TYhgG4G-45">
          <mxGeometry relative="1" as="geometry">
            <mxPoint x="693" y="594" as="sourcePoint" />
            <mxPoint x="693" y="450" as="targetPoint" />
          </mxGeometry>
        </mxCell>
        <mxCell id="shBaJVuwjm3f6TYhgG4G-65" value="" style="edgeStyle=orthogonalEdgeStyle;rounded=0;orthogonalLoop=1;jettySize=auto;html=1;" edge="1" parent="WIyWlLk6GJQsqaUBKTNV-1" source="shBaJVuwjm3f6TYhgG4G-63" target="shBaJVuwjm3f6TYhgG4G-3">
          <mxGeometry relative="1" as="geometry" />
        </mxCell>
        <mxCell id="shBaJVuwjm3f6TYhgG4G-63" value="" style="shape=waypoint;sketch=0;size=6;pointerEvents=1;points=[];fillColor=default;resizable=0;rotatable=0;perimeter=centerPerimeter;snapToPoint=1;" vertex="1" parent="WIyWlLk6GJQsqaUBKTNV-1">
          <mxGeometry x="230" y="270" width="20" height="20" as="geometry" />
        </mxCell>
      </root>
    </mxGraphModel>
  </diagram>
</mxfile>
